<svg xmlns="http://www.w3.org/2000/svg" width="1200" height="34" viewBox="0 0 1200 34" role="img" aria-labelledby="title"><title id="title">Jour 4 sur 30</title><rect width="1200" height="34" fill="#fff"/><rect x="2" y="6" width="35" height="12" rx="4" fill="#258ccb"/><rect x="42" y="6" width="35" height="12" rx="4" fill="#258ccb"/><rect x="82" y="6" width="35" height="12" rx="4" fill="#258ccb"/><rect x="122" y="6" width="35" height="12" rx="4" fill="#258ccb"/><rect x="162" y="6" width="35" height="12" rx="4" fill="#e3ebf0"/><rect x="202" y="6" width="35" height="12" rx="4" fill="#e3ebf0"/><rect x="242" y="6" width="35" height="12" rx="4" fill="#e3ebf0"/><rect x="282" y="6" width="35" height="12" rx="4" fill="#e3ebf0"/><rect x="322" y="6" width="35" height="12" rx="4" fill="#e3ebf0"/><rect x="362" y="6" width="35" height="12" rx="4" fill="#e3ebf0"/><rect x="402" y="6" width="35" height="12" rx="4" fill="#e3ebf0"/><rect x="442" y="6" width="35" height="12" rx="4" fill="#e3ebf0"/><rect x="482" y="6" width="35" height="12" rx="4" fill="#e3ebf0"/><rect x="522" y="6" width="35" height="12" rx="4" fill="#e3ebf0"/><rect x="562" y="6" width="35" height="12" rx="4" fill="#e3ebf0"/><rect x="602" y="6" width="35" height="12" rx="4" fill="#e3ebf0"/><rect x="642" y="6" width="35" height="12" rx="4" fill="#e3ebf0"/><rect x="682" y="6" width="35" height="12" rx="4" fill="#e3ebf0"/><rect x="722" y="6" width="35" height="12" rx="4" fill="#e3ebf0"/><rect x="762" y="6" width="35" height="12" rx="4" fill="#e3ebf0"/><rect x="802" y="6" width="35" height="12" rx="4" fill="#e3ebf0"/><rect x="842" y="6" width="35" height="12" rx="4" fill="#e3ebf0"/><rect x="882" y="6" width="35" height="12" rx="4" fill="#e3ebf0"/><rect x="922" y="6" width="35" height="12" rx="4" fill="#e3ebf0"/><rect x="962" y="6" width="35" height="12" rx="4" fill="#e3ebf0"/><rect x="1002" y="6" width="35" height="12" rx="4" fill="#e3ebf0"/><rect x="1042" y="6" width="35" height="12" rx="4" fill="#e3ebf0"/><rect x="1082" y="6" width="35" height="12" rx="4" fill="#e3ebf0"/><rect x="1122" y="6" width="35" height="12" rx="4" fill="#e3ebf0"/><rect x="1162" y="6" width="35" height="12" rx="4" fill="#e3ebf0"/></svg>